<?xml version="1.0" encoding="UTF-8" standalone="no"?>
<svg
   xmlns:dc="http://purl.org/dc/elements/1.1/"
   xmlns:cc="http://creativecommons.org/ns#"
   xmlns:rdf="http://www.w3.org/1999/02/22-rdf-syntax-ns#"
   xmlns:svg="http://www.w3.org/2000/svg"
   xmlns="http://www.w3.org/2000/svg"
   xmlns:sodipodi="http://sodipodi.sourceforge.net/DTD/sodipodi-0.dtd"
   xmlns:inkscape="http://www.inkscape.org/namespaces/inkscape"
   width="25.300869mm"
   height="15.269986mm"
   viewBox="0 0 25.300869 15.269986"
   version="1.1"
   id="svg8"
   inkscape:version="1.0.1 (0767f8302a, 2020-10-17)"
   sodipodi:docname="dOhm.svg">
  <defs
     id="defs2">
    <clipPath
       clipPathUnits="userSpaceOnUse"
       id="clipPath851">
      <path
         d="M 0,0 H 562 V 840 H 0 Z"
         id="path849" />
    </clipPath>
    <clipPath
       clipPathUnits="userSpaceOnUse"
       id="clipPath859">
      <path
         d="M 0,0 H 596 V 842 H 0 Z"
         id="path857" />
    </clipPath>
    <clipPath
       clipPathUnits="userSpaceOnUse"
       id="clipPath863">
      <path
         d="M 0,0 H 220.914 V 839.793 H 0 Z"
         id="path861" />
    </clipPath>
    <clipPath
       clipPathUnits="userSpaceOnUse"
       id="clipPath867">
      <path
         d="M 0,0 H 596 V 842 H 0 Z"
         id="path865" />
    </clipPath>
    <clipPath
       clipPathUnits="userSpaceOnUse"
       id="clipPath871">
      <path
         d="M 0,0 H 562 V 840 H 0 Z"
         id="path869" />
    </clipPath>
    <clipPath
       clipPathUnits="userSpaceOnUse"
       id="clipPath875">
      <path
         d="M 0,0 H 596 V 842 H 0 Z"
         id="path873" />
    </clipPath>
    <clipPath
       clipPathUnits="userSpaceOnUse"
       id="clipPath879">
      <path
         d="M 0,0 H 596 V 842 H 0 Z"
         id="path877" />
    </clipPath>
    <clipPath
       clipPathUnits="userSpaceOnUse"
       id="clipPath1843">
      <path
         d="M 33,57 H 188 V 212 H 33 Z"
         id="path1841" />
    </clipPath>
    <clipPath
       clipPathUnits="userSpaceOnUse"
       id="clipPath1853">
      <path
         d="M 0,0 H 596 V 842 H 0 Z"
         id="path1851" />
    </clipPath>
    <clipPath
       clipPathUnits="userSpaceOnUse"
       id="clipPath1863">
      <path
         d="M 0,0 H 562 V 840 H 0 Z"
         id="path1861" />
    </clipPath>
    <clipPath
       clipPathUnits="userSpaceOnUse"
       id="clipPath1873">
      <path
         d="M 0,0 H 596 V 842 H 0 Z"
         id="path1871" />
    </clipPath>
    <clipPath
       clipPathUnits="userSpaceOnUse"
       id="clipPath1883">
      <path
         d="M 33,57 H 188 V 212 H 33 Z"
         id="path1881" />
    </clipPath>
    <clipPath
       clipPathUnits="userSpaceOnUse"
       id="clipPath1893">
      <path
         d="M 0,0 H 596 V 842 H 0 Z"
         id="path1891" />
    </clipPath>
    <clipPath
       clipPathUnits="userSpaceOnUse"
       id="clipPath1903">
      <path
         d="M 33,57 H 188 V 212 H 33 Z"
         id="path1901" />
    </clipPath>
    <clipPath
       clipPathUnits="userSpaceOnUse"
       id="clipPath1909">
      <path
         d="m 33.523,134.871 c 0,42.582 34.52,77.106 77.106,77.106 42.582,0 77.105,-34.524 77.105,-77.106 0,-42.586 -34.523,-77.105 -77.105,-77.105 -42.586,0 -77.106,34.519 -77.106,77.105"
         id="path1907" />
    </clipPath>
    <clipPath
       clipPathUnits="userSpaceOnUse"
       id="clipPath1919">
      <path
         d="M 0,0 H 596 V 842 H 0 Z"
         id="path1917" />
    </clipPath>
    <clipPath
       clipPathUnits="userSpaceOnUse"
       id="clipPath1929">
      <path
         d="M 0,0 H 562 V 840 H 0 Z"
         id="path1927" />
    </clipPath>
    <clipPath
       clipPathUnits="userSpaceOnUse"
       id="clipPath1939">
      <path
         d="M 0,0 H 596 V 842 H 0 Z"
         id="path1937" />
    </clipPath>
    <clipPath
       clipPathUnits="userSpaceOnUse"
       id="clipPath1949">
      <path
         d="M 0,0 H 562 V 840 H 0 Z"
         id="path1947" />
    </clipPath>
    <clipPath
       clipPathUnits="userSpaceOnUse"
       id="clipPath1959">
      <path
         d="M 0,0 H 596 V 842 H 0 Z"
         id="path1957" />
    </clipPath>
    <clipPath
       clipPathUnits="userSpaceOnUse"
       id="clipPath1969">
      <path
         d="M 9,55.215 H 243.977 V 212 H 9 Z"
         id="path1967" />
    </clipPath>
    <clipPath
       clipPathUnits="userSpaceOnUse"
       id="clipPath1979">
      <path
         d="M 0,0 H 596 V 842 H 0 Z"
         id="path1977" />
    </clipPath>
    <clipPath
       clipPathUnits="userSpaceOnUse"
       id="clipPath1989">
      <path
         d="M 0,0 H 562 V 840 H 0 Z"
         id="path1987" />
    </clipPath>
    <clipPath
       clipPathUnits="userSpaceOnUse"
       id="clipPath1999">
      <path
         d="M 0,0 H 596 V 842 H 0 Z"
         id="path1997" />
    </clipPath>
    <clipPath
       clipPathUnits="userSpaceOnUse"
       id="clipPath2009">
      <path
         d="M 9,55.215 H 243.977 V 212 H 9 Z"
         id="path2007" />
    </clipPath>
    <clipPath
       clipPathUnits="userSpaceOnUse"
       id="clipPath2019">
      <path
         d="M 0,0 H 596 V 842 H 0 Z"
         id="path2017" />
    </clipPath>
    <clipPath
       clipPathUnits="userSpaceOnUse"
       id="clipPath2029">
      <path
         d="M 9,55.215 H 243.977 V 212 H 9 Z"
         id="path2027" />
    </clipPath>
    <clipPath
       clipPathUnits="userSpaceOnUse"
       id="clipPath2139">
      <path
         d="M 0,0 H 562 V 840 H 0 Z"
         id="path2137" />
    </clipPath>
    <clipPath
       clipPathUnits="userSpaceOnUse"
       id="clipPath2147">
      <path
         d="M 0,0 H 596 V 842 H 0 Z"
         id="path2145" />
    </clipPath>
    <clipPath
       clipPathUnits="userSpaceOnUse"
       id="clipPath2151">
      <path
         d="m 405.117,208.23 h 14.613 v 64.613 h -14.613 z"
         id="path2149" />
    </clipPath>
    <clipPath
       clipPathUnits="userSpaceOnUse"
       id="clipPath2155">
      <path
         d="M 0,0 H 596 V 842 H 0 Z"
         id="path2153" />
    </clipPath>
    <clipPath
       clipPathUnits="userSpaceOnUse"
       id="clipPath2159">
      <path
         d="M 0,0 H 562 V 840 H 0 Z"
         id="path2157" />
    </clipPath>
    <clipPath
       clipPathUnits="userSpaceOnUse"
       id="clipPath2163">
      <path
         d="M 0,0 H 596 V 842 H 0 Z"
         id="path2161" />
    </clipPath>
    <clipPath
       clipPathUnits="userSpaceOnUse"
       id="clipPath2167">
      <path
         d="M 0,0 H 596 V 842 H 0 Z"
         id="path2165" />
    </clipPath>
    <clipPath
       clipPathUnits="userSpaceOnUse"
       id="clipPath2171">
      <path
         d="M 405.117,159.75 H 419.73 V 272.844 H 405.117 Z"
         id="path2169" />
    </clipPath>
    <clipPath
       clipPathUnits="userSpaceOnUse"
       id="clipPath2175">
      <path
         d="M 0,0 H 596 V 842 H 0 Z"
         id="path2173" />
    </clipPath>
    <clipPath
       clipPathUnits="userSpaceOnUse"
       id="clipPath2179">
      <path
         d="M 0,0 H 562 V 840 H 0 Z"
         id="path2177" />
    </clipPath>
    <clipPath
       clipPathUnits="userSpaceOnUse"
       id="clipPath2183">
      <path
         d="M 0,0 H 596 V 842 H 0 Z"
         id="path2181" />
    </clipPath>
    <clipPath
       clipPathUnits="userSpaceOnUse"
       id="clipPath2187">
      <path
         d="M 0,0 H 596 V 842 H 0 Z"
         id="path2185" />
    </clipPath>
    <clipPath
       clipPathUnits="userSpaceOnUse"
       id="clipPath2305">
      <path
         d="M 0,0 H 596 V 842 H 0 Z"
         id="path2303" />
    </clipPath>
    <clipPath
       clipPathUnits="userSpaceOnUse"
       id="clipPath2309">
      <path
         d="m 405.117,271.062 h 14.613 v 73.59 h -14.613 z"
         id="path2307" />
    </clipPath>
    <clipPath
       clipPathUnits="userSpaceOnUse"
       id="clipPath2313">
      <path
         d="M 0,0 H 596 V 842 H 0 Z"
         id="path2311" />
    </clipPath>
    <clipPath
       clipPathUnits="userSpaceOnUse"
       id="clipPath2317">
      <path
         d="M 0,0 H 562 V 840 H 0 Z"
         id="path2315" />
    </clipPath>
    <clipPath
       clipPathUnits="userSpaceOnUse"
       id="clipPath2321">
      <path
         d="M 0,0 H 596 V 842 H 0 Z"
         id="path2319" />
    </clipPath>
    <clipPath
       clipPathUnits="userSpaceOnUse"
       id="clipPath2325">
      <path
         d="M 0,0 H 596 V 842 H 0 Z"
         id="path2323" />
    </clipPath>
    <clipPath
       clipPathUnits="userSpaceOnUse"
       id="clipPath2391">
      <path
         d="M 0,0 H 596 V 842 H 0 Z"
         id="path2389" />
    </clipPath>
    <clipPath
       clipPathUnits="userSpaceOnUse"
       id="clipPath2901">
      <path
         d="M 0,0 H 596 V 842 H 0 Z"
         id="path2899" />
    </clipPath>
    <clipPath
       clipPathUnits="userSpaceOnUse"
       id="clipPath2921">
      <path
         d="M 0,0 H 596 V 842 H 0 Z"
         id="path2919" />
    </clipPath>
    <clipPath
       clipPathUnits="userSpaceOnUse"
       id="clipPath2939">
      <path
         d="M 0,0 H 596 V 842 H 0 Z"
         id="path2937" />
    </clipPath>
    <clipPath
       clipPathUnits="userSpaceOnUse"
       id="clipPath2943">
      <path
         d="m 457.043,805.352 h 24.531 v 3 h -24.531 z"
         id="path2941" />
    </clipPath>
    <clipPath
       clipPathUnits="userSpaceOnUse"
       id="clipPath2947">
      <path
         d="M 0,0 H 596 V 842 H 0 Z"
         id="path2945" />
    </clipPath>
    <clipPath
       clipPathUnits="userSpaceOnUse"
       id="clipPath2951">
      <path
         d="M 0,0 H 562 V 840 H 0 Z"
         id="path2949" />
    </clipPath>
    <clipPath
       clipPathUnits="userSpaceOnUse"
       id="clipPath2955">
      <path
         d="M 0,0 H 596 V 842 H 0 Z"
         id="path2953" />
    </clipPath>
    <clipPath
       clipPathUnits="userSpaceOnUse"
       id="clipPath2959">
      <path
         d="M 0,0 H 596 V 842 H 0 Z"
         id="path2957" />
    </clipPath>
    <clipPath
       clipPathUnits="userSpaceOnUse"
       id="clipPath3037">
      <path
         d="M 0,0 H 596 V 842 H 0 Z"
         id="path3035" />
    </clipPath>
  </defs>
  <sodipodi:namedview
     id="base"
     pagecolor="#ffffff"
     bordercolor="#666666"
     borderopacity="1.0"
     inkscape:pageopacity="0.0"
     inkscape:pageshadow="2"
     inkscape:zoom="6.4910737"
     inkscape:cx="66.111765"
     inkscape:cy="47.490346"
     inkscape:document-units="mm"
     inkscape:current-layer="g845"
     inkscape:document-rotation="0"
     showgrid="false"
     inkscape:pagecheckerboard="true"
     fit-margin-top="0"
     fit-margin-left="0"
     fit-margin-right="0"
     fit-margin-bottom="0"
     inkscape:window-width="950"
     inkscape:window-height="1044"
     inkscape:window-x="962"
     inkscape:window-y="4"
     inkscape:window-maximized="0" />
  <metadata
     id="metadata5">
    <rdf:RDF>
      <cc:Work
         rdf:about="">
        <dc:format>image/svg+xml</dc:format>
        <dc:type
           rdf:resource="http://purl.org/dc/dcmitype/StillImage" />
        <dc:title />
      </cc:Work>
    </rdf:RDF>
  </metadata>
  <g
     inkscape:label="Layer 1"
     inkscape:groupmode="layer"
     id="layer1"
     transform="translate(-84.923774,-17.38171)">
    <g
       id="g841"
       inkscape:label="2020-10-11_Lebenslauf"
       transform="matrix(0.35277777,0,0,0.35277777,37.785237,69.180503)">
      <g
         id="g843" />
      <g
         id="g845"
         transform="translate(8.2998922,-135.25627)"
         style="stroke:#000000;stroke-opacity:1">
        <g
           id="g5645"
           style="fill:#f4f4f4;fill-opacity:0.12156863;stroke:none;stroke-opacity:1"
           transform="translate(-115.10587,-35.119584)">
          <path
             d="m 243.96203,41.333627 h 3.481 c 1.375,0 2.5,-0.184001 3.379,-0.551001 0.875,-0.366999 1.566,-0.875 2.062,-1.527 0.5,-0.648999 0.84,-1.413999 1.02,-2.289 0.179,-0.879 0.269,-1.824 0.269,-2.844 0,-1.018999 -0.09,-1.965 -0.269,-2.844 -0.18,-0.875 -0.52,-1.64 -1.02,-2.289 -0.496,-0.652 -1.187,-1.16 -2.062,-1.527 -0.879,-0.367 -2.004,-0.551 -3.379,-0.551 h -3.481 z m -3.535,-17.309001 h 8.371 c 1.547,0 2.887,0.266 4.016,0.793 1.133,0.528 2.054,1.25 2.773,2.165 0.715,0.914 1.25,1.984 1.598,3.207 0.347,1.23 0.523,2.539001 0.523,3.933 0,1.395 -0.176,2.707001 -0.523,3.93 -0.348,1.226001 -0.883,2.297001 -1.598,3.211 -0.719,0.914 -1.64,1.636001 -2.773,2.164001 -1.129,0.526999 -2.469,0.792999 -4.016,0.792999 h -8.371 z"
             style="fill:#f4f4f4;fill-opacity:0.12156863;fill-rule:nonzero;stroke:none;stroke-width:0.999998;stroke-opacity:1"
             id="path891-3" />
          <path
             d="m 256.60303,41.165627 h 4.386 v -0.113001 c -1.226,-0.926 -2.234,-2.094 -3.027,-3.507999 -0.793,-1.414 -1.187,-3.082 -1.187,-5.004001 0,-1.434 0.226,-2.711 0.679,-3.836 0.45,-1.121 1.09,-2.062 1.922,-2.828 0.828,-0.762 1.832,-1.344 3.012,-1.738 1.176,-0.395 2.504,-0.594 3.973,-0.594 1.472,0 2.796,0.199 3.976,0.594 1.176,0.394 2.18,0.976 3.012,1.738 0.828,0.766 1.469,1.707 1.922,2.828 0.453,1.125 0.679,2.402 0.679,3.836 0,0.961 -0.105,1.859001 -0.312,2.699001 -0.207,0.84 -0.5,1.614 -0.875,2.320999 -0.379,0.707001 -0.828,1.351 -1.344,1.937001 -0.519,0.582 -1.082,1.101999 -1.683,1.554999 v 0.113001 h 4.382 v 3.054999 h -7.976 v -3.114 c 1.379,-1.053999 2.41,-2.246 3.097,-3.577999 0.688,-1.328001 1.032,-2.933001 1.032,-4.820001 0,-0.941 -0.125,-1.800999 -0.379,-2.574 -0.254,-0.774 -0.633,-1.438 -1.133,-1.992 -0.5,-0.559 -1.117,-0.989 -1.852,-1.289 -0.734,-0.301 -1.582,-0.454 -2.546,-0.454 -0.961,0 -1.809,0.153 -2.547,0.454 -0.735,0.3 -1.352,0.73 -1.852,1.289 -0.5,0.554 -0.875,1.218 -1.129,1.992 -0.254,0.773001 -0.383,1.633 -0.383,2.574 0,1.887 0.344,3.492 1.032,4.820001 0.687,1.331999 1.722,2.524 3.097,3.577999 v 3.114 h -7.976 z"
             style="fill:#f4f4f4;fill-opacity:0.12156863;fill-rule:nonzero;stroke:none;stroke-width:0.999998;stroke-opacity:1"
             id="path893-6" />
          <path
             d="m 243.96203,63.462626 h 3.481 c 1.375,0 2.5,-0.184 3.379,-0.550999 0.875,-0.367001 1.566,-0.879 2.062,-1.527 0.5,-0.652001 0.84,-1.414001 1.02,-2.293001 0.179,-0.875 0.269,-1.823999 0.269,-2.84 0,-1.019 -0.09,-1.968999 -0.269,-2.844 -0.18,-0.879 -0.52,-1.64 -1.02,-2.292999 -0.496,-0.648 -1.187,-1.156001 -2.062,-1.523001 -0.879,-0.371 -2.004,-0.555 -3.379,-0.555 h -3.481 z m -3.535,-17.309 h 8.371 c 1.547,0 2.887,0.266 4.016,0.789 1.133,0.532001 2.054,1.250001 2.773,2.164 0.715,0.918 1.25,1.985 1.598,3.211001 0.347,1.227 0.523,2.535999 0.523,3.933999 0,1.395 -0.176,2.703 -0.523,3.930001 -0.348,1.225999 -0.883,2.296999 -1.598,3.210999 -0.719,0.914001 -1.64,1.636 -2.773,2.164 -1.129,0.527 -2.469,0.793001 -4.016,0.793001 h -8.371 z"
             style="fill:#f4f4f4;fill-opacity:0.12156863;fill-rule:nonzero;stroke:none;stroke-width:0.999998;stroke-opacity:1"
             id="path895-7" />
          <path
             d="m 256.60303,46.153626 h 7.976 v 3.110001 c -1.375,1.057999 -2.41,2.25 -3.097,3.577999 -0.688,1.332 -1.032,2.937 -1.032,4.824 0,0.941 0.129,1.801 0.383,2.574 0.254,0.774 0.629,1.438 1.129,1.993 0.5,0.554 1.117,0.984 1.852,1.289 0.738,0.3 1.586,0.449001 2.547,0.449001 0.964,0 1.812,-0.149001 2.546,-0.449001 0.735,-0.305 1.352,-0.735 1.852,-1.289 0.5,-0.555 0.879,-1.219 1.133,-1.993 0.254,-0.773 0.379,-1.633 0.379,-2.574 0,-1.887 -0.344,-3.492 -1.032,-4.824 -0.687,-1.327999 -1.718,-2.52 -3.097,-3.577999 v -3.110001 h 7.976 v 3.055 h -4.382 v 0.113 c 0.601,0.453 1.164,0.969 1.683,1.555 0.516,0.586001 0.965,1.23 1.344,1.938 0.375,0.707 0.668,1.480001 0.875,2.320001 0.207,0.835999 0.312,1.737999 0.312,2.698999 0,1.434 -0.226,2.711001 -0.679,3.832 -0.453,1.121 -1.094,2.067 -1.922,2.828 -0.832,0.766 -1.836,1.344 -3.012,1.742001 -1.18,0.394999 -2.504,0.594 -3.976,0.594 -1.469,0 -2.797,-0.199001 -3.973,-0.594 -1.18,-0.398001 -2.184,-0.976001 -3.012,-1.742001 -0.832,-0.761 -1.472,-1.707 -1.922,-2.828 -0.453,-1.120999 -0.679,-2.398 -0.679,-3.832 0,-1.921999 0.394,-3.589999 1.187,-5.004 0.793,-1.414 1.801,-2.586 3.027,-3.508 v -0.113 h -4.386 z"
             style="fill:#f4f4f4;fill-opacity:0.12156863;fill-rule:nonzero;stroke:none;stroke-width:0.999998;stroke-opacity:1"
             id="path897-5" />
          <path
             d="m 308.61103,26.911626 h -3.477 c -1.379,0 -2.504,0.184 -3.383,0.551 -0.875,0.367 -1.562,0.875 -2.062,1.527 -0.5,0.649 -0.84,1.414 -1.02,2.289 -0.18,0.879 -0.269,1.825001 -0.269,2.844 0,1.02 0.089,1.965 0.269,2.844 0.18,0.875001 0.52,1.640001 1.02,2.289 0.5,0.652 1.187,1.160001 2.062,1.527 0.879,0.367 2.004,0.551001 3.383,0.551001 h 3.477 z m 3.535,17.309 h -8.371 c -1.547,0 -2.887,-0.266 -4.016,-0.792999 -1.133,-0.528 -2.055,-1.246001 -2.773,-2.164001 -0.715,-0.913999 -1.25,-1.984999 -1.598,-3.207 -0.348,-1.226999 -0.523,-2.539 -0.523,-3.934 0,-1.393999 0.175,-2.707 0.523,-3.93 0.348,-1.226 0.883,-2.296 1.598,-3.21 0.718,-0.915 1.64,-1.637 2.773,-2.165 1.129,-0.527 2.469,-0.793 4.016,-0.793 h 8.371 z"
             style="fill:#f4f4f4;fill-opacity:0.12156863;fill-rule:nonzero;stroke:none;stroke-width:0.999998;stroke-opacity:1"
             id="path899-3" />
          <path
             d="m 295.97003,44.220626 h -7.977 v -3.11 c 1.375,-1.057999 2.411,-2.25 3.098,-3.577999 0.688,-1.332001 1.031,-2.937001 1.031,-4.824001 0,-0.941 -0.125,-1.800999 -0.383,-2.574 -0.253,-0.774 -0.628,-1.438 -1.128,-1.992 -0.5,-0.559 -1.118,-0.985 -1.856,-1.289 -0.734,-0.301 -1.582,-0.454 -2.543,-0.454 -0.961,0 -1.808,0.153 -2.547,0.454 -0.734,0.304 -1.351,0.73 -1.851,1.289 -0.5,0.554 -0.875,1.218 -1.133,1.992 -0.254,0.773001 -0.379,1.633 -0.379,2.574 0,1.887 0.344,3.492 1.031,4.824001 0.688,1.327999 1.719,2.52 3.098,3.577999 v 3.11 h -7.977 v -3.054999 h 4.383 v -0.113001 c -0.601,-0.453 -1.164,-0.972999 -1.683,-1.554999 -0.516,-0.586001 -0.965,-1.23 -1.34,-1.937001 -0.379,-0.706999 -0.672,-1.480999 -0.879,-2.320999 -0.207,-0.84 -0.313,-1.738001 -0.313,-2.699001 0,-1.434 0.227,-2.711 0.68,-3.836 0.453,-1.121 1.094,-2.062 1.922,-2.828 0.832,-0.762 1.836,-1.344 3.015,-1.738 1.176,-0.395 2.5,-0.594 3.973,-0.594 1.469,0 2.797,0.199 3.973,0.594 1.18,0.394 2.183,0.976 3.012,1.738 0.832,0.766 1.472,1.707 1.925,2.828 0.453,1.125 0.676,2.402 0.676,3.836 0,1.922001 -0.394,3.590001 -1.187,5.004001 -0.789,1.413999 -1.797,2.581999 -3.024,3.507999 v 0.113001 h 4.383 z"
             style="fill:#f4f4f4;fill-opacity:0.12156863;fill-rule:nonzero;stroke:none;stroke-width:0.999998;stroke-opacity:1"
             id="path901-5" />
          <path
             d="m 308.61103,49.036626 h -3.477 c -1.379,0 -2.504,0.188001 -3.383,0.551001 -0.875,0.370999 -1.562,0.879 -2.062,1.530999 -0.5,0.649 -0.84,1.414 -1.02,2.289 -0.18,0.879 -0.269,1.825 -0.269,2.844 0,1.016001 0.089,1.965 0.269,2.84 0.18,0.879 0.52,1.641 1.02,2.293001 0.5,0.648 1.187,1.159999 2.062,1.527 0.879,0.366999 2.004,0.550999 3.383,0.550999 h 3.477 z m 3.535,17.313001 h -8.371 c -1.547,0 -2.887,-0.266001 -4.016,-0.793001 -1.133,-0.528 -2.055,-1.249999 -2.773,-2.164 -0.715,-0.914 -1.25,-1.985 -1.598,-3.210999 -0.348,-1.227001 -0.523,-2.535001 -0.523,-3.930001 0,-1.398 0.175,-2.706999 0.523,-3.933999 0.348,-1.226001 0.883,-2.293001 1.598,-3.207 0.718,-0.918 1.64,-1.636 2.773,-2.164 1.129,-0.531 2.469,-0.793001 4.016,-0.793001 h 8.371 z"
             style="fill:#f4f4f4;fill-opacity:0.12156863;fill-rule:nonzero;stroke:none;stroke-width:0.999998;stroke-opacity:1"
             id="path903-6" />
          <path
             d="m 295.97003,49.208626 h -4.383 v 0.113 c 1.227,0.922 2.235,2.094 3.024,3.508 0.793,1.414001 1.187,3.082001 1.187,5.004 0,1.434 -0.223,2.711001 -0.676,3.832 -0.453,1.125 -1.093,2.067 -1.925,2.832 -0.829,0.762 -1.832,1.34 -3.012,1.738001 -1.176,0.394999 -2.504,0.594 -3.973,0.594 -1.473,0 -2.797,-0.199001 -3.973,-0.594 -1.179,-0.398001 -2.183,-0.976001 -3.015,-1.738001 -0.828,-0.765 -1.469,-1.707 -1.922,-2.832 -0.453,-1.120999 -0.68,-2.398 -0.68,-3.832 0,-0.961 0.106,-1.863 0.313,-2.698999 0.207,-0.84 0.5,-1.613001 0.879,-2.320001 0.375,-0.708 0.824,-1.351999 1.34,-1.938 0.519,-0.586 1.082,-1.102 1.683,-1.555 v -0.113 h -4.383 v -3.055 h 7.977 v 3.110001 c -1.379,1.053999 -2.41,2.25 -3.098,3.577999 -0.687,1.332 -1.031,2.937 -1.031,4.824 0,0.941 0.125,1.801 0.379,2.574 0.258,0.774 0.633,1.438 1.133,1.993 0.5,0.558 1.117,0.984 1.851,1.289 0.739,0.3 1.586,0.449001 2.547,0.449001 0.961,0 1.809,-0.149001 2.543,-0.449001 0.738,-0.305 1.356,-0.731 1.856,-1.289 0.5,-0.555 0.875,-1.219 1.128,-1.993 0.258,-0.773 0.383,-1.633 0.383,-2.574 0,-1.887 -0.343,-3.492 -1.031,-4.824 -0.687,-1.327999 -1.723,-2.524 -3.098,-3.577999 v -3.110001 h 7.977 z"
             style="fill:#f4f4f4;fill-opacity:0.12156863;fill-rule:nonzero;stroke:none;stroke-width:0.999998;stroke-opacity:1"
             id="path905-2" />
        </g>
      </g>
    </g>
  </g>
</svg>
